<svg width="24" height="24" viewBox="0 0 24 24" fill="none" xmlns="http://www.w3.org/2000/svg">
<circle cx="12" cy="12" r="12" fill="black" fill-opacity="0.6"/>
<path d="M13.6328 11.9844L17.3453 8.64063C17.5516 8.45313 17.5516 8.10938 17.3453 7.92188L16.4859 7.14063C16.2797 6.95312 15.9016 6.95312 15.6953 7.14063L12.0172 10.5156L8.30469 7.14063C8.09844 6.95312 7.72031 6.95312 7.51406 7.14063L6.65469 7.92188C6.44844 8.10938 6.44844 8.45313 6.65469 8.64063L10.3672 11.9844L6.65469 15.3594C6.44844 15.5469 6.44844 15.8906 6.65469 16.0781L7.51406 16.8594C7.72031 17.0469 8.09844 17.0469 8.30469 16.8594L12.0172 13.4844L15.6953 16.8594C15.9016 17.0469 16.2797 17.0469 16.4859 16.8594L17.3453 16.0781C17.5516 15.8906 17.5516 15.5469 17.3453 15.3594L13.6328 11.9844Z" fill="white"/>
</svg>
