<svg width="200" height="39" viewBox="0 0 200 39" fill="none" xmlns="http://www.w3.org/2000/svg">
<path d="M53.8294 26.43C53.2627 25.9605 52.8131 25.3654 52.5163 24.6919C52.2195 24.0185 52.0836 23.2851 52.1194 22.55H56.1194C56.1111 22.7934 56.1634 23.0351 56.2716 23.2533C56.3798 23.4715 56.5406 23.6593 56.7394 23.8C57.2752 24.1313 57.9006 24.2885 58.5294 24.25C59.122 24.2794 59.7119 24.1518 60.2394 23.88C60.4195 23.782 60.57 23.6376 60.6755 23.4617C60.781 23.2859 60.8376 23.0851 60.8394 22.88C60.8372 22.6762 60.7729 22.4779 60.6549 22.3117C60.537 22.1455 60.3711 22.0193 60.1794 21.95C59.4918 21.6948 58.7711 21.5399 58.0394 21.49C56.4291 21.4362 54.879 20.8646 53.6194 19.86C53.1693 19.4191 52.8167 18.8887 52.5842 18.3031C52.3516 17.7175 52.2444 17.0896 52.2694 16.46C52.2541 15.5723 52.524 14.7031 53.0394 13.98C53.585 13.2142 54.3329 12.6153 55.1994 12.25C56.2136 11.8328 57.3029 11.6286 58.3994 11.65C59.5001 11.6256 60.5927 11.8441 61.5994 12.29C62.4788 12.6677 63.2294 13.2931 63.7594 14.09C64.2824 14.8844 64.551 15.8192 64.5294 16.77H60.5994C60.6073 16.5461 60.5593 16.3237 60.4598 16.123C60.3603 15.9222 60.2124 15.7494 60.0294 15.62C59.5584 15.3218 59.0059 15.1784 58.4494 15.21C57.9088 15.1776 57.3703 15.3027 56.8994 15.57C56.7242 15.6696 56.5801 15.8158 56.483 15.9923C56.3859 16.1688 56.3397 16.3688 56.3494 16.57C56.3434 16.7587 56.3909 16.9453 56.4865 17.1081C56.582 17.2709 56.7217 17.4033 56.8894 17.49C57.4738 17.7594 58.1062 17.909 58.7494 17.93C60.4604 17.9839 62.117 18.5442 63.5094 19.54C64.3274 20.2899 64.8467 21.3102 64.9717 22.4128C65.0967 23.5155 64.8188 24.6261 64.1894 25.54C63.6073 26.3109 62.8209 26.9033 61.9194 27.25C60.8616 27.6749 59.7291 27.8823 58.5894 27.86C56.8847 27.9514 55.2015 27.4457 53.8294 26.43Z" fill="#414042"/>
<path d="M84.199 16.17L85.479 11.89H89.799V12.14L84.799 27.72H82.919L78.999 19.48L74.999 27.72H72.999L67.999 12.14V11.89H72.279L73.599 16.17L74.539 19.97L77.939 12.39H79.679L83.269 19.84L84.199 16.17Z" fill="#414042"/>
<path d="M96.7203 26.78C95.4964 26.117 94.4844 25.1223 93.8003 23.91C93.1114 22.6227 92.751 21.1851 92.751 19.725C92.751 18.2649 93.1114 16.8274 93.8003 15.54C94.4846 14.3305 95.4968 13.339 96.7203 12.68C98.0311 12.003 99.485 11.6498 100.96 11.6498C102.436 11.6498 103.889 12.003 105.2 12.68C106.424 13.339 107.436 14.3305 108.12 15.54C108.809 16.8274 109.17 18.2649 109.17 19.725C109.17 21.1851 108.809 22.6227 108.12 23.91C107.436 25.1223 106.424 26.117 105.2 26.78C103.889 27.457 102.436 27.8103 100.96 27.8103C99.485 27.8103 98.0311 27.457 96.7203 26.78ZM103.88 22.78C104.597 21.9331 104.99 20.8596 104.99 19.75C104.99 18.6405 104.597 17.5669 103.88 16.72C103.088 15.9805 102.044 15.5692 100.96 15.5692C99.8764 15.5692 98.8328 15.9805 98.0403 16.72C97.3239 17.571 96.931 18.6476 96.931 19.76C96.931 20.8724 97.3239 21.9491 98.0403 22.8C98.8328 23.5395 99.8764 23.9508 100.96 23.9508C102.044 23.9508 103.088 23.5395 103.88 22.8V22.78Z" fill="#414042"/>
<path d="M120.81 11.8899C121.883 11.8667 122.945 12.1107 123.9 12.5999C124.763 13.0525 125.476 13.7476 125.95 14.5999C126.439 15.5242 126.695 16.5541 126.695 17.5999C126.695 18.6458 126.439 19.6757 125.95 20.5999C125.466 21.4519 124.748 22.1463 123.88 22.5999C122.933 23.0817 121.882 23.3222 120.82 23.2999H118.05V27.6199H113.95V11.8899H120.81ZM120.41 19.7099C120.692 19.7293 120.975 19.6885 121.241 19.5903C121.506 19.492 121.748 19.3385 121.95 19.1399C122.144 18.9275 122.294 18.6782 122.39 18.4068C122.486 18.1354 122.527 17.8474 122.51 17.5599C122.529 17.2754 122.489 16.9899 122.393 16.7214C122.296 16.453 122.145 16.2074 121.95 15.9999C121.743 15.8104 121.5 15.6641 121.235 15.5697C120.971 15.4752 120.69 15.4345 120.41 15.4499H118.04V19.7099H120.41Z" fill="#414042"/>
<path d="M139.2 18.63L145.62 11.85H147.28V27.56H143.2V23.22L143.29 19.75L139.35 23.75H139.06L135.15 19.75L135.21 23.22V27.56H131.12V11.85H132.77L139.2 18.63Z" fill="#414042"/>
<path d="M158.329 11.74H160.119L167.459 27.34V27.56H163.049L162.149 25.56H156.199L155.329 27.56H150.919V27.34L158.329 11.74ZM160.629 22.03L159.199 18.21L157.719 22.03H160.629Z" fill="#414042"/>
<path d="M184.671 27.43V27.54H180.081L177.441 22.71H175.251V27.54H171.201V11.89H177.871C178.946 11.8717 180.009 12.1118 180.971 12.59C181.854 13.0405 182.59 13.7345 183.091 14.59C183.606 15.4614 183.869 16.4582 183.851 17.47C183.864 18.3695 183.634 19.2558 183.185 20.0355C182.736 20.8152 182.085 21.4593 181.301 21.9L184.671 27.43ZM175.251 15.43V19.26H177.621C177.893 19.2769 178.166 19.2396 178.423 19.1503C178.681 19.061 178.918 18.9216 179.121 18.74C179.468 18.3544 179.66 17.8539 179.66 17.335C179.66 16.8161 179.468 16.3156 179.121 15.93C178.703 15.578 178.167 15.3991 177.621 15.43H175.251Z" fill="#414042"/>
<path d="M187.831 11.89H199.491V15.57H195.711V27.57H191.611V15.57H187.831V11.89Z" fill="#414042"/>
<path d="M35.02 0H11.91C8.77322 0.053752 5.77949 1.32172 3.55834 3.53728C1.33718 5.75285 0.061663 8.74337 0 11.88V20.17C0 20.6527 0.19175 21.1156 0.533066 21.4569C0.874382 21.7982 1.33731 21.99 1.82 21.99H9.2C9.68188 21.9874 10.1433 21.7948 10.484 21.454C10.8248 21.1133 11.0174 20.6519 11.02 20.17V13.7C11.0187 13.3446 11.0876 12.9924 11.2226 12.6637C11.3577 12.335 11.5564 12.0361 11.8073 11.7843C12.0581 11.5326 12.3562 11.3328 12.6844 11.1965C13.0127 11.0602 13.3646 10.99 13.72 10.99H35.02C35.501 10.9874 35.9613 10.7944 36.3005 10.4534C36.6396 10.1124 36.83 9.65097 36.83 9.17001V1.81C36.8274 1.33077 36.6358 0.871909 36.297 0.533035C35.9581 0.194162 35.4992 0.00262599 35.02 0Z" fill="#FFA400"/>
<path d="M35.02 16.5699H27.66C27.4176 16.5699 27.1776 16.6182 26.9542 16.7122C26.7307 16.8062 26.5283 16.9438 26.3587 17.1171C26.1892 17.2903 26.056 17.4957 25.9669 17.7212C25.8778 17.9466 25.8347 18.1876 25.84 18.4299V25.2099V24.9099C25.8374 25.6279 25.551 26.3156 25.0434 26.8233C24.5357 27.331 23.848 27.6173 23.13 27.6199H1.82003C1.58149 27.6186 1.34505 27.6645 1.1243 27.7548C0.903544 27.8452 0.702831 27.9783 0.533696 28.1465C0.364562 28.3147 0.230343 28.5147 0.138757 28.735C0.0471712 28.9552 2.41403e-05 29.1914 2.77809e-05 29.4299V36.7899C-0.00129844 37.0293 0.0448715 37.2666 0.135865 37.488C0.226859 37.7094 0.36087 37.9106 0.530137 38.0798C0.699405 38.2491 0.900568 38.3831 1.12198 38.4741C1.34339 38.5651 1.58065 38.6113 1.82003 38.6099H24.93C28.0642 38.5562 31.0553 37.2893 33.2746 35.0756C35.4939 32.8619 36.7684 29.8739 36.83 26.7399V18.4299C36.8367 18.1881 36.7948 17.9473 36.7069 17.7219C36.6189 17.4965 36.4866 17.291 36.3179 17.1176C36.1492 16.9442 35.9474 16.8064 35.7244 16.7123C35.5015 16.6183 35.262 16.5699 35.02 16.5699Z" fill="#12284C"/>
</svg>
